<svg id="visual" viewBox="0 0 900 600" width="900" height="600" xmlns="http://www.w3.org/2000/svg" xmlns:xlink="http://www.w3.org/1999/xlink" version="1.1"><rect x="0" y="0" width="900" height="600" fill="#08070b"></rect><path d="M0 421L15 428.7C30 436.3 60 451.7 90 452.3C120 453 150 439 180 434C210 429 240 433 270 444.5C300 456 330 475 360 473.7C390 472.3 420 450.7 450 442.8C480 435 510 441 540 449.5C570 458 600 469 630 462.3C660 455.7 690 431.3 720 425.5C750 419.7 780 432.3 810 440.3C840 448.3 870 451.7 885 453.3L900 455L900 601L885 601C870 601 840 601 810 601C780 601 750 601 720 601C690 601 660 601 630 601C600 601 570 601 540 601C510 601 480 601 450 601C420 601 390 601 360 601C330 601 300 601 270 601C240 601 210 601 180 601C150 601 120 601 90 601C60 601 30 601 15 601L0 601Z" fill="#6697e3" stroke-linecap="round" stroke-linejoin="miter"></path></svg>